<svg width="70" height="70" viewBox="0 0 70 70" fill="none" xmlns="http://www.w3.org/2000/svg">
<path d="M21.683 70C21.4831 70 21.2837 69.9786 21.0883 69.9362L14.3678 68.4812C14.0082 68.4036 13.6675 68.2559 13.3651 68.0466C13.0627 67.8372 12.8045 67.5703 12.6053 67.2612C12.4061 66.952 12.2698 66.6065 12.2042 66.2446C12.1386 65.8827 12.1449 65.5114 12.2229 65.152L12.8678 62.185C12.8871 62.0958 12.8794 62.0028 12.8456 61.918C12.8118 61.8331 12.7535 61.7603 12.6781 61.7088C12.5989 61.6405 12.5002 61.5988 12.3961 61.5896C12.2919 61.5804 12.1875 61.6042 12.0976 61.6575L9.54141 63.2994C8.91648 63.7 8.15824 63.8367 7.43272 63.6796C6.7072 63.5224 6.07352 63.0842 5.67043 62.4608L1.94928 56.6877C1.75 56.3786 1.61363 56.0332 1.54797 55.6714C1.48232 55.3095 1.48867 54.9383 1.56667 54.5789C1.64467 54.2195 1.79277 53.879 2.00252 53.5769C2.21226 53.2748 2.47952 53.0171 2.789 52.8184L5.34573 51.1766C5.42293 51.1277 5.4838 51.057 5.52054 50.9734C5.55728 50.8897 5.56822 50.797 5.55196 50.7071C5.54429 50.6034 5.5042 50.5046 5.43733 50.4249C5.37047 50.3451 5.28024 50.2884 5.17938 50.2628L2.20736 49.6191C1.84798 49.5415 1.50741 49.3938 1.20513 49.1845C0.902849 48.9753 0.644785 48.7084 0.445692 48.3993C0.246599 48.0903 0.110382 47.745 0.0448286 47.3832C-0.0207246 47.0214 -0.0143279 46.6503 0.0636526 46.291L1.51575 39.6075C1.59461 39.2444 1.74494 38.9007 1.95796 38.5963C2.17099 38.292 2.44246 38.033 2.75656 37.8346C3.07066 37.6362 3.4211 37.5023 3.78748 37.4407C4.15385 37.3791 4.52882 37.391 4.89054 37.4757L7.83408 38.1627C7.92994 38.1857 8.03062 38.1777 8.12163 38.1398C8.21263 38.1019 8.28928 38.0362 8.34053 37.952C8.40578 37.8704 8.44519 37.7711 8.45371 37.667C8.46224 37.5629 8.43948 37.4586 8.38836 37.3674L6.71297 34.7685C6.51372 34.4593 6.37738 34.1139 6.31175 33.752C6.24612 33.39 6.25248 33.0187 6.33047 32.6593C6.40846 32.2998 6.55655 31.9592 6.76627 31.657C6.97598 31.3548 7.24322 31.097 7.55269 30.8981L13.3361 27.1838C13.9612 26.7839 14.7192 26.6477 15.4445 26.8048C16.1698 26.9619 16.8034 27.3996 17.207 28.0224L18.8523 30.5746C18.9023 30.6521 18.974 30.7131 19.0585 30.75C19.1431 30.7869 19.2366 30.798 19.3274 30.7819C19.4311 30.7741 19.5297 30.7341 19.6096 30.6675C19.6894 30.6009 19.7465 30.5111 19.7729 30.4105L20.4178 27.4436C20.5761 26.7181 21.0159 26.0852 21.6406 25.6838C22.2652 25.2824 23.0236 25.1453 23.7493 25.3026L30.4698 26.7576C30.8293 26.8353 31.1699 26.9831 31.4722 27.1925C31.7746 27.4019 32.0327 27.6688 32.2319 27.978C32.4311 28.2871 32.5674 28.6325 32.6331 28.9944C32.6987 29.3562 32.6925 29.7275 32.6146 30.0869L31.984 32.9889C31.9633 33.0826 31.9725 33.1804 32.0102 33.2687C32.0479 33.357 32.1122 33.4312 32.1942 33.4811L32.311 33.5483C32.3856 33.5929 32.4711 33.6158 32.558 33.6144C32.6448 33.613 32.7296 33.5873 32.8027 33.5403L35.2961 31.9385C35.9215 31.5388 36.6795 31.4027 37.4048 31.5601C38.1301 31.7174 38.7636 32.1553 39.1671 32.7782L42.8894 38.5502C43.0886 38.8594 43.2248 39.206 43.2903 39.568C43.3558 39.9299 43.3492 40.3012 43.271 40.6606C43.1928 41.02 43.0444 41.3605 42.8345 41.6625C42.6245 41.9645 42.357 42.2221 42.0474 42.4206L39.5499 44.0248C39.4678 44.0764 39.4043 44.1528 39.3684 44.2429C39.3326 44.333 39.3263 44.4322 39.3505 44.5261C39.3678 44.6172 39.4106 44.7016 39.4739 44.7694C39.5373 44.8371 39.6185 44.8855 39.7083 44.909L42.6797 45.604C43.3937 45.7734 44.0131 46.2153 44.4056 46.8352C44.7982 47.4551 44.9328 48.204 44.7807 48.9218L43.3167 55.6577C43.2385 56.0171 43.0903 56.3576 42.8805 56.6597C42.6706 56.9619 42.4034 57.2197 42.0939 57.4185C41.7844 57.6173 41.4388 57.7532 41.0768 57.8184C40.7148 57.8836 40.3434 57.8769 39.984 57.7986L37.0137 57.156C36.9232 57.1353 36.8286 57.1424 36.7423 57.1764C36.6559 57.2103 36.5818 57.2695 36.5295 57.3462C36.4623 57.4246 36.4214 57.522 36.4126 57.6249C36.4038 57.7277 36.4276 57.8307 36.4805 57.9193L38.1257 60.4703C38.325 60.7795 38.4612 61.1249 38.5268 61.4868C38.5924 61.8487 38.5859 62.22 38.5078 62.5793C38.4297 62.9387 38.2815 63.2792 38.0717 63.5813C37.8618 63.8833 37.5945 64.141 37.2849 64.3396L31.5015 68.0551C30.8761 68.4548 30.118 68.5908 29.3926 68.4335C28.6672 68.2762 28.0336 67.8383 27.63 67.2154L25.9511 64.6108C25.8988 64.5279 25.8215 64.4638 25.7303 64.4277C25.6392 64.3917 25.5389 64.3856 25.4441 64.4103C25.3553 64.4293 25.2737 64.4732 25.2087 64.5367C25.1438 64.6002 25.0982 64.6808 25.0772 64.7692L24.4198 67.7942C24.2831 68.4186 23.9374 68.9777 23.4397 69.3788C22.942 69.78 22.3223 69.9991 21.683 70ZM12.3517 59.2478C12.7744 59.2516 13.1911 59.3486 13.5721 59.5317C13.9531 59.7149 14.289 59.9798 14.556 60.3076C14.8229 60.6354 15.0144 61.0179 15.1166 61.4281C15.2189 61.8383 15.2295 62.266 15.1477 62.6807L14.5028 65.6477C14.4899 65.7071 14.4889 65.7685 14.4999 65.8283C14.5109 65.8882 14.5335 65.9453 14.5666 65.9963C14.6 66.048 14.6432 66.0927 14.6938 66.1277C14.7445 66.1627 14.8015 66.1873 14.8617 66.2002L21.5822 67.6552C21.6421 67.6686 21.7042 67.67 21.7647 67.6594C21.8252 67.6488 21.883 67.6263 21.9349 67.5933C21.9867 67.5602 22.0315 67.5173 22.0666 67.4669C22.1018 67.4165 22.1267 67.3597 22.1399 67.2997L22.7973 64.2735C22.9065 63.767 23.1546 63.3008 23.5138 62.9273C23.873 62.5538 24.3291 62.2877 24.831 62.1589C24.8652 62.1498 24.9199 62.1372 24.9547 62.1315C25.5127 62.0006 26.0977 62.0473 26.6279 62.2651C27.1581 62.4828 27.607 62.8608 27.9119 63.3461L29.5913 65.9507C29.6246 66.0027 29.6678 66.0476 29.7184 66.0828C29.7691 66.118 29.8263 66.1428 29.8866 66.1559C29.9469 66.1689 30.0092 66.1699 30.0699 66.1587C30.1306 66.1475 30.1885 66.1244 30.2402 66.0908L36.023 62.3765C36.0745 62.3437 36.1191 62.3012 36.1541 62.2511C36.1891 62.2011 36.2139 62.1447 36.227 62.0851C36.2401 62.0255 36.2413 61.9639 36.2306 61.9038C36.2198 61.8437 36.1973 61.7864 36.1643 61.735L34.5185 59.1829C34.2171 58.7178 34.0614 58.1733 34.0712 57.6192C34.0811 57.0651 34.256 56.5265 34.5738 56.0724C34.8873 55.6028 35.3342 55.2377 35.857 55.0243C36.3797 54.8109 36.9544 54.7589 37.507 54.8749L40.4774 55.5175C40.5374 55.5311 40.5995 55.5327 40.6601 55.5221C40.7207 55.5116 40.7786 55.4891 40.8305 55.4561C40.8824 55.423 40.9273 55.38 40.9625 55.3296C40.9977 55.2791 41.0226 55.2222 41.0357 55.1621L42.4997 48.4261C42.5246 48.3068 42.5018 48.1824 42.4362 48.0796C42.3707 47.9768 42.2675 47.9037 42.1488 47.8758L39.1762 47.1808C38.6391 47.0516 38.1515 46.7681 37.7737 46.3651C37.3958 45.9621 37.1442 45.4573 37.0498 44.913C36.9554 44.3687 37.0225 43.8086 37.2426 43.302C37.4627 42.7953 37.8264 42.3641 38.2887 42.0617L40.7873 40.4563C40.8388 40.4236 40.8832 40.3809 40.918 40.3309C40.9529 40.2808 40.9774 40.2243 40.9901 40.1646C41.0033 40.1049 41.0045 40.0431 40.9938 39.9829C40.983 39.9227 40.9605 39.8652 40.9274 39.8137L37.2051 34.0428C37.1376 33.9388 37.0318 33.8656 36.9106 33.8391C36.7894 33.8127 36.6627 33.8351 36.558 33.9015L34.0645 35.5034C33.6274 35.7858 33.1201 35.9404 32.5999 35.9496C32.0796 35.9589 31.5672 35.8225 31.1204 35.5558C30.5854 35.2662 30.1584 34.8114 29.9032 34.2593C29.6479 33.7071 29.5781 33.0872 29.7041 32.4921L30.3348 29.5912C30.3604 29.4704 30.337 29.3443 30.2697 29.2406C30.2024 29.137 30.0967 29.0644 29.9759 29.0386L23.2553 27.5837C23.1953 27.5696 23.1331 27.5676 23.0723 27.5779C23.0116 27.5883 22.9535 27.6107 22.9015 27.6438C22.8495 27.6769 22.8047 27.7201 22.7697 27.7709C22.7347 27.8216 22.7102 27.8788 22.6976 27.9392L22.0528 30.9061C21.9267 31.4496 21.6442 31.9443 21.2402 32.329C20.8361 32.7137 20.3282 32.9717 19.7792 33.0709C19.2301 33.1702 18.664 33.1064 18.1508 32.8875C17.6377 32.6687 17.1998 32.3042 16.8915 31.8392L15.2462 29.2871C15.2128 29.2352 15.1695 29.1905 15.1188 29.1555C15.0681 29.1204 15.0109 29.0958 14.9506 29.0828C14.8904 29.0699 14.8281 29.069 14.7675 29.0802C14.7069 29.0914 14.6491 29.1145 14.5974 29.1481L8.81399 32.8624C8.76262 32.8953 8.71823 32.9379 8.68338 32.988C8.64852 33.038 8.62388 33.0945 8.61087 33.154C8.59785 33.2136 8.59671 33.2752 8.60752 33.3352C8.61832 33.3952 8.64086 33.4525 8.67384 33.5038L10.3498 36.1039C10.6332 36.5405 10.7884 37.0478 10.7979 37.5683C10.8074 38.0887 10.6707 38.6013 10.4034 39.048C10.1081 39.5847 9.64581 40.0105 9.08662 40.2608C8.52744 40.511 7.9019 40.572 7.3049 40.4346L4.36021 39.7475C4.29945 39.7335 4.23652 39.7316 4.17503 39.742C4.11353 39.7524 4.05469 39.7748 4.00188 39.8079C3.9495 39.8408 3.90426 39.8839 3.86883 39.9346C3.83341 39.9853 3.80852 40.0425 3.79566 40.103L2.3435 46.7855C2.33051 46.8452 2.32945 46.9069 2.34038 46.9671C2.35132 47.0273 2.37403 47.0847 2.40723 47.136C2.44042 47.1874 2.48343 47.2317 2.5338 47.2663C2.58416 47.301 2.64088 47.3254 2.70069 47.3381L5.67328 47.9818C6.21732 48.1065 6.71278 48.3882 7.09819 48.792C7.4836 49.1957 7.74202 49.7037 7.84138 50.2529C7.94075 50.8022 7.87669 51.3685 7.65716 51.8817C7.43762 52.3948 7.07227 52.8323 6.60642 53.1397L4.05027 54.7815C3.9989 54.8144 3.95451 54.8571 3.91966 54.9071C3.8848 54.9572 3.86016 55.0136 3.84714 55.0732C3.83412 55.1328 3.83299 55.1943 3.84379 55.2543C3.8546 55.3144 3.87714 55.3717 3.91012 55.423L7.63186 61.1961C7.66503 61.2481 7.70817 61.293 7.7588 61.3282C7.80942 61.3635 7.86652 61.3883 7.92679 61.4013C7.98707 61.4144 8.04933 61.4153 8.10998 61.4041C8.17063 61.393 8.22847 61.3699 8.28015 61.3363L10.8369 59.6945C11.2883 59.403 11.8143 59.2479 12.3517 59.2478Z" fill="#096BD8"/>
<path d="M14.156 47.8326L17.7063 46.3719L16.9619 44.1552L10.4995 46.8969V48.7683L16.9607 51.5101L17.7074 49.2992L14.156 47.8326Z" fill="#F54712"/>
<path d="M23.2472 41.0948L18.5396 54.5703H21.1133L25.7918 41.0948H23.2472Z" fill="#F54712"/>
<path d="M27.3715 44.1552L26.6271 46.3719L30.1774 47.8326L26.626 49.2992L27.3727 51.5101L33.8339 48.7683V46.8969L27.3715 44.1552Z" fill="#F54712"/>
<path d="M53.6566 31.608C53.4938 31.6083 53.3315 31.5911 53.1724 31.5568L48.5329 30.5518C47.9383 30.4231 47.4191 30.0634 47.0896 29.5519C46.7601 29.0404 46.6473 28.4189 46.776 27.8242L47.2215 25.7768L45.4749 26.9275C44.9629 27.2557 44.3419 27.3676 43.7476 27.2388C43.1533 27.1101 42.6343 26.7511 42.304 26.2405L39.7359 22.2573C39.5725 22.004 39.4608 21.7209 39.407 21.4243C39.3532 21.1277 39.3585 20.8234 39.4226 20.5288C39.4866 20.2343 39.6081 19.9553 39.7802 19.7078C39.9522 19.4602 40.1714 19.2491 40.4252 19.0865L42.1901 17.9528L40.1438 17.5369C39.8491 17.4735 39.5698 17.3526 39.3219 17.1812C39.074 17.0097 38.8623 16.7911 38.699 16.5377C38.5358 16.2844 38.424 16.0013 38.3703 15.7047C38.3165 15.4081 38.3217 15.1038 38.3857 14.8093L39.3872 10.1983C39.452 9.90077 39.5753 9.61912 39.7499 9.36973C39.9246 9.12033 40.1472 8.90818 40.4046 8.74563C40.6621 8.58308 40.9493 8.47337 41.2496 8.4229C41.5498 8.37243 41.8571 8.3822 42.1536 8.45164L44.1839 8.92562L43.023 7.13113C42.8596 6.87779 42.7479 6.59471 42.6941 6.29812C42.6403 6.00152 42.6456 5.69723 42.7097 5.40268C42.7737 5.10812 42.8952 4.8291 43.0673 4.58159C43.2393 4.33408 43.4585 4.12295 43.7123 3.96029L47.7035 1.39672C48.2158 1.06933 48.8369 0.958061 49.4311 1.08721C50.0252 1.21637 50.5441 1.57545 50.8743 2.08598L52.0091 3.84516L52.4307 1.80459C52.5631 1.21167 52.924 0.694902 53.4351 0.366418C53.9462 0.037934 54.5662 -0.0757666 55.1606 0.0499877L59.7989 1.05376C60.3933 1.18287 60.9121 1.5427 61.2414 2.05417C61.5706 2.56563 61.6833 3.18688 61.5547 3.7814L61.1206 5.78328L62.857 4.67808C63.369 4.35108 63.9896 4.23979 64.5834 4.36849C65.1772 4.4972 65.696 4.85545 66.0267 5.36512L68.5948 9.34942C68.9241 9.86073 69.0368 10.4819 68.9082 11.0763C68.7796 11.6707 68.4201 12.1897 67.9089 12.5191L66.1828 13.6266L68.2291 14.0595C68.8142 14.1984 69.3217 14.5607 69.643 15.069C69.9643 15.5773 70.0739 16.1911 69.9484 16.7792L68.94 21.4255C68.8091 22.0194 68.4486 22.5374 67.9371 22.8663C67.4256 23.1953 66.8048 23.3085 66.2101 23.1813L64.1604 22.737L65.3077 24.4745C65.471 24.7278 65.5828 25.0109 65.6366 25.3075C65.6903 25.6041 65.685 25.9084 65.621 26.2029C65.557 26.4975 65.4355 26.7765 65.2634 27.024C65.0914 27.2715 64.8722 27.4827 64.6184 27.6453L60.6295 30.2089C60.1174 30.5372 59.4961 30.6492 58.9016 30.5205C58.3071 30.3917 57.7879 30.0326 57.4575 29.5219L56.3147 27.7479C56.2965 27.7524 56.2794 27.7559 56.2623 27.7593L55.9 29.8022C55.7874 30.3135 55.5037 30.7712 55.0958 31.0995C54.6879 31.4279 54.1802 31.6073 53.6566 31.608ZM47.2192 23.4662C47.5649 23.469 47.9056 23.5481 48.2172 23.6978C48.5288 23.8476 48.8034 24.0643 49.0215 24.3325C49.2396 24.6007 49.3958 24.9137 49.479 25.2493C49.5621 25.5848 49.5701 25.9346 49.5024 26.2735L49.0569 28.321L53.6657 29.2758L54.0736 27.2181C54.172 26.7743 54.3993 26.3695 54.7269 26.0545C55.0546 25.7394 55.468 25.5282 55.9153 25.4472C56.3625 25.3663 56.8237 25.4193 57.241 25.5995C57.6583 25.7798 58.013 26.0793 58.2607 26.4604L59.4194 28.2571L63.3571 25.681L62.2109 23.9788C61.968 23.592 61.8441 23.1424 61.8545 22.6858C61.8649 22.2292 62.0093 21.7857 62.2697 21.4104C62.53 21.0351 62.8949 20.7446 63.3189 20.5749C63.743 20.4053 64.2075 20.3639 64.6549 20.456L66.7046 20.9003L67.6685 16.2836L65.6472 15.8518C65.2075 15.7463 64.8083 15.5142 64.4989 15.1843C64.1896 14.8544 63.9837 14.4411 63.9066 13.9955C63.8295 13.5499 63.8847 13.0914 64.0652 12.6768C64.2458 12.2622 64.5439 11.9095 64.9226 11.6624L66.6112 10.5789L64.0647 6.62981L62.3966 7.74751C62.0062 7.98877 61.5539 8.11093 61.095 8.09902C60.6362 8.08711 60.1908 7.94165 59.8134 7.68046C59.436 7.41927 59.143 7.05368 58.9702 6.62847C58.7975 6.20327 58.7524 5.7369 58.8407 5.28649L59.2736 3.28691L54.6661 2.33099L54.2673 4.34538C54.1653 4.79032 53.9349 5.19553 53.6048 5.51082C53.2747 5.82611 52.8593 6.03761 52.4102 6.11912C51.961 6.20063 51.4978 6.14856 51.078 5.96937C50.6581 5.79018 50.3001 5.49174 50.0482 5.11103L48.9123 3.34953L44.9723 5.92445L46.1414 7.66084C46.3737 8.0187 46.501 8.43461 46.5086 8.86122C46.5163 9.28784 46.404 9.70804 46.1847 10.074C45.9416 10.5102 45.5634 10.8557 45.107 11.0583C44.6506 11.2609 44.1407 11.3097 43.6541 11.1974L41.6227 10.7234L40.6667 15.3037L42.6857 15.699C43.131 15.8002 43.5368 16.0299 43.8526 16.3598C44.1683 16.6897 44.3802 17.1051 44.4618 17.5544C44.5434 18.0038 44.4911 18.4671 44.3114 18.887C44.1318 19.3068 43.8327 19.6646 43.4513 19.9158L41.6853 21.0506L44.266 24.9757L45.9784 23.8307C46.3486 23.5928 46.7792 23.4663 47.2192 23.4662Z" fill="#F54712"/>
<path d="M48.2191 15.803L50.8559 14.7179L50.3029 13.0729L45.5054 15.1088V16.4983L50.3029 18.5331L50.8571 16.8915L48.2191 15.803Z" fill="#096BD8"/>
<path d="M54.9701 10.8013L51.4746 20.8058H53.3845L56.859 10.8013H54.9701Z" fill="#096BD8"/>
<path d="M58.031 13.0729L57.478 14.7179L60.1148 15.803L57.478 16.8915L58.0322 18.5331L62.8297 16.4983V15.1088L58.031 13.0729Z" fill="#096BD8"/>
</svg>
