<svg width="71" height="70" viewBox="0 0 71 70" fill="none" xmlns="http://www.w3.org/2000/svg">
<path d="M69.8258 40.0635L56.6069 36.2533C56.6196 36.0816 56.5768 35.9105 56.4848 35.765C55.1901 33.7288 53.6776 31.8396 51.9742 30.1306C50.6024 28.7456 49.1247 27.4699 47.5544 26.3149C48.4081 25.3022 49.1915 24.3585 49.8715 23.5274L49.9498 23.4304C49.9951 23.3748 50.0374 23.3216 50.0781 23.2692C50.2015 23.1981 50.3036 23.0953 50.3739 22.9715C50.4442 22.8476 50.4801 22.7073 50.478 22.5649C50.6423 22.0562 50.5085 21.5139 50.0953 20.4935C47.8017 14.8364 43.1103 4.89488 37.4915 1.93996C35.5819 1.05182 33.5683 0.407168 31.498 0.021147C31.3781 -0.00704902 31.2532 -0.00704902 31.1333 0.021147C29.0633 0.406667 27.0499 1.0508 25.1405 1.9384C19.5218 4.89331 14.8312 14.8348 12.5352 20.4982C12.1212 21.5155 11.9874 22.0633 12.1518 22.5696C12.1495 22.7121 12.1855 22.8525 12.256 22.9764C12.3264 23.1003 12.4288 23.203 12.5524 23.2739C12.5923 23.3263 12.6346 23.3795 12.68 23.4351L12.7582 23.5321C13.4336 24.3593 14.2099 25.3195 15.0401 26.3493C13.4833 27.4962 12.0181 28.7625 10.6579 30.1368C7.95845 32.8328 5.75105 35.9798 4.13529 39.4359C2.3409 43.4565 1.02755 47.675 0.222539 52.0037C-0.300988 55.0517 0.0511599 56.2224 1.7939 57.2209C3.84486 58.2757 6.03878 59.0254 8.30629 59.4465C9.74149 59.7509 11.4208 60.0248 13.6589 60.3183C13.7748 60.4106 13.8908 60.5017 14.0072 60.5914C14.195 61.9773 15.7656 63.0259 17.7368 63.0259H44.4007C47.0783 66.4428 50.8053 68.8843 55.0074 69.9742C55.1416 70.0086 55.2824 70.0086 55.4167 69.9742C59.7924 68.8385 63.648 66.2404 66.3434 62.6112C68.9676 59.1065 70.3943 54.8504 70.4127 50.4722V40.8382C70.4124 40.6629 70.3549 40.4924 70.249 40.3526C70.1431 40.2128 69.9945 40.1113 69.8258 40.0635ZM50.8278 31.2653C52.2707 32.7141 53.5708 34.2985 54.71 35.9966L40.5975 40.0659C40.4295 40.1144 40.2818 40.2161 40.1766 40.3559C40.0715 40.4956 40.0146 40.6657 40.0145 40.8406V50.4722C40.0152 51.2469 40.0615 52.0209 40.153 52.7901C37.2794 52.9141 34.4656 53.651 31.9002 54.9515C31.818 54.9015 31.7359 54.8537 31.6529 54.8052V44.4176C35.3419 40.3797 41.7517 33.1434 46.5097 27.5513C48.0442 28.6741 49.4881 29.9159 50.8278 31.2653ZM25.297 54.392C27.8633 54.6283 30.3078 55.5963 32.34 57.181H24.6538L25.297 54.392ZM34.9349 57.181C34.4362 56.7501 33.9364 56.3505 33.4356 55.9822C35.634 55.002 38.0049 54.4672 40.4112 54.4085C40.6018 55.3498 40.8583 56.2765 41.1789 57.1818L34.9349 57.181ZM13.9242 22.4092C13.8404 22.3124 13.762 22.211 13.6895 22.1055C13.7705 21.7623 13.8837 21.4275 14.0275 21.1054C15.8094 16.7106 20.5321 6.18452 25.8902 3.36734C27.6208 2.56962 29.443 1.98799 31.3156 1.63555C33.1886 1.988 35.011 2.56963 36.7419 3.36734C42.0984 6.18452 46.8211 16.7106 48.603 21.1054C48.7465 21.4275 48.8595 21.7623 48.9403 22.1055C48.868 22.2112 48.7896 22.3126 48.7055 22.4092L48.6226 22.5109C44.2418 27.88 35.6017 37.6861 30.8492 42.905C27.1321 38.7676 21.821 32.1793 17.5028 26.8298C16.2187 25.2381 15.0057 23.734 14.008 22.5109L13.9242 22.4092ZM2.59132 55.8217C1.74773 55.3381 1.32359 55.0947 1.80877 52.2768C2.59675 48.0905 3.86939 44.0102 5.60101 40.1183C7.13642 36.8284 9.23587 33.8327 11.8043 31.2669C13.1238 29.936 14.5453 28.7105 16.0559 27.6014L16.2508 27.8424C20.7254 33.3954 26.2815 40.2787 30.0377 44.4161V53.9702C28.4692 53.2412 26.7712 52.8315 25.0427 52.7651C23.7327 51.405 20.2034 50.2273 18.1007 49.6192L18.0498 49.6052L18.157 44.9224C18.1595 44.8165 18.141 44.7112 18.1027 44.6125C18.0645 44.5138 18.0071 44.4236 17.934 44.347C17.8608 44.2705 17.7733 44.2091 17.6765 44.1663C17.5796 44.1236 17.4753 44.1004 17.3694 44.098C17.2636 44.0955 17.1583 44.114 17.0596 44.1523C16.9608 44.1905 16.8706 44.2479 16.7941 44.321C16.7175 44.3942 16.6561 44.4817 16.6134 44.5785C16.5706 44.6754 16.5474 44.7797 16.545 44.8856L16.4472 49.1708H16.4393C13.9188 48.5385 11.1657 48.0549 9.65776 48.1872C9.44471 48.206 9.24786 48.3086 9.11049 48.4725C8.97313 48.6365 8.90651 48.8482 8.92529 49.0613C8.94407 49.2743 9.04672 49.4712 9.21065 49.6086C9.37457 49.7459 9.58636 49.8125 9.7994 49.7938C10.8649 49.7669 11.9299 49.8608 12.9742 50.0739C12.2448 50.4139 11.5884 50.8923 11.0413 51.4825C10.9731 51.5648 10.922 51.6598 10.8909 51.762C10.8598 51.8642 10.8493 51.9715 10.86 52.0778C10.8708 52.1841 10.9025 52.2872 10.9535 52.3811C11.0044 52.475 11.0735 52.5579 11.1568 52.6248C11.24 52.6918 11.3358 52.7415 11.4384 52.7711C11.541 52.8008 11.6485 52.8097 11.7547 52.7974C11.8608 52.7851 11.9634 52.7519 12.0566 52.6996C12.1497 52.6473 12.2316 52.577 12.2973 52.4928C13.3941 51.5065 14.7839 50.9067 16.2539 50.7852C16.7164 50.9042 17.1843 51.031 17.6523 51.1671C21.0337 52.1453 23.0981 53.1501 23.7828 53.7769L23.0003 57.1779H15.3743C15.2052 57.1637 15.0349 57.1831 14.8733 57.235C14.7117 57.2869 14.562 57.3703 14.4327 57.4804C14.3035 57.5905 14.1974 57.725 14.1205 57.8763C14.0435 58.0276 13.9973 58.1927 13.9845 58.3619V58.732C11.7307 58.4386 10.0553 58.1663 8.63653 57.8658C6.5345 57.4754 4.49891 56.7871 2.59132 55.8217ZM15.5973 60.3128V58.7907H41.8269C42.2372 59.6978 42.7132 60.5738 43.2511 61.4115H17.7329C16.5301 61.4139 15.5973 60.8254 15.5973 60.3128ZM68.7967 50.4722C68.8021 54.5296 67.476 58.4766 65.022 61.7077C62.568 64.9388 59.1216 67.2754 55.2116 68.359C51.3017 67.2753 47.8554 64.9387 45.4016 61.7076C42.9477 58.4765 41.6218 54.5295 41.6273 50.4722V41.4447L55.2116 37.532L68.7967 41.4447V50.4722ZM30.1512 40.4094L30.1622 40.4219C30.1755 40.4384 30.1888 40.454 30.2029 40.4697L30.2263 40.4939L30.2647 40.5291L30.2952 40.555L30.3038 40.562L30.3163 40.5698C30.3443 40.5902 30.3736 40.6088 30.404 40.6254L30.4267 40.6379C30.4607 40.6556 30.496 40.6708 30.5323 40.6833L30.5581 40.6911C30.5867 40.6996 30.6157 40.7067 30.645 40.7122L30.6802 40.7177C30.7162 40.7233 30.7526 40.7262 30.789 40.7263H30.796C30.8325 40.7262 30.8688 40.7233 30.9048 40.7177L30.94 40.7122C30.9694 40.7069 30.9984 40.6998 31.0269 40.6911L31.0527 40.6833C31.0892 40.6708 31.1248 40.6556 31.1591 40.6379L31.181 40.6254C31.2115 40.6088 31.2407 40.5902 31.2687 40.5698L31.2812 40.562L31.2898 40.5573L31.3203 40.5315L31.3587 40.4963L31.3822 40.472C31.3962 40.4564 31.4103 40.4407 31.4229 40.4243L31.4338 40.4117C31.9957 39.6746 32.9324 38.6119 34.0162 37.377C38.4893 32.2928 45.2451 24.6128 44.0219 19.8048C43.7983 19.0234 43.3786 18.3122 42.8026 17.7387C42.2267 17.1653 41.5136 16.7486 40.7313 16.5283H40.7235H40.7164C34.6618 14.334 28.0368 14.2881 21.9524 16.3984C21.9215 16.4069 21.8912 16.4174 21.8616 16.4297C21.763 16.4641 21.6637 16.497 21.5651 16.533C20.7668 16.7609 20.0395 17.1876 19.451 17.773C18.8625 18.3585 18.4321 19.0837 18.2001 19.8807C16.9057 24.8108 23.5433 32.5909 27.935 37.7386C28.849 38.8122 29.6465 39.7427 30.1512 40.4094ZM39.6475 17.8633V21.6814C39.6475 24.5087 38.4963 25.7209 36.752 27.556C36.3068 28.0255 35.8458 28.5107 35.3567 29.0702C32.9786 31.385 29.8585 31.3662 27.1994 29.0225C26.7221 28.4825 26.2768 28.0169 25.8456 27.5654C24.0598 25.6982 22.9823 24.5706 22.9823 21.6814V17.7498C28.4047 15.9848 34.2532 16.0255 39.6506 17.8657L39.6475 17.8633ZM19.7542 20.2892C19.8707 19.8736 20.0752 19.4879 20.3539 19.1583C20.6326 18.8287 20.9789 18.5629 21.3694 18.379V21.6876C21.3694 25.224 22.8304 26.7515 24.6796 28.686C25.11 29.136 25.5545 29.6016 26.0233 30.1322L26.0913 30.201C27.5315 31.5741 29.4298 32.3644 31.4189 32.4188C32.3708 32.4033 33.3102 32.1998 34.1832 31.82C35.0561 31.4402 35.8453 30.8916 36.5055 30.2057L36.5478 30.1603C37.0228 29.6125 37.4782 29.1367 37.9188 28.6735C39.7844 26.7101 41.258 25.159 41.258 21.6876V18.5786C41.851 18.9461 42.2802 19.5274 42.4568 20.2024C42.8833 21.8802 41.9427 24.4422 39.66 27.8181C37.5504 30.7859 35.2608 33.6215 32.8041 36.3088C32.0379 37.1798 31.3454 37.9678 30.7929 38.6307C30.3289 38.0649 29.7701 37.4099 29.1542 36.6876C25.4927 32.3937 18.6743 24.4007 19.7542 20.2892ZM40.3987 12.4637C40.5835 12.356 40.8034 12.3261 41.0103 12.3803C41.2171 12.4346 41.394 12.5687 41.5021 12.7533L41.6101 12.9387C41.6632 13.0303 41.6978 13.1315 41.7118 13.2365C41.7257 13.3414 41.7189 13.4481 41.6917 13.5504C41.6644 13.6528 41.6173 13.7487 41.5529 13.8328C41.4886 13.9169 41.4083 13.9875 41.3167 14.0406C41.1942 14.1122 41.0547 14.1497 40.9129 14.1493C40.7715 14.1495 40.6326 14.1125 40.5101 14.042C40.3876 13.9716 40.2858 13.8701 40.2148 13.7479L40.11 13.5671C40.0557 13.4755 40.02 13.374 40.0052 13.2685C39.9903 13.163 39.9965 13.0556 40.0233 12.9525C40.0501 12.8494 40.0971 12.7527 40.1616 12.6678C40.226 12.583 40.3066 12.5118 40.3987 12.4582V12.4637ZM32.4316 4.07085C32.4808 3.97708 32.5481 3.89395 32.6296 3.8262C32.711 3.75846 32.805 3.70743 32.9061 3.67603C33.0073 3.64463 33.1137 3.63348 33.2192 3.64322C33.3246 3.65296 33.4272 3.6834 33.5209 3.73279C35.6979 4.87766 37.9462 7.2034 40.2023 10.6451C40.3196 10.8239 40.361 11.0419 40.3175 11.2513C40.274 11.4606 40.1491 11.6441 39.9703 11.7614C39.7915 11.8786 39.5734 11.9201 39.3641 11.8766C39.1547 11.833 38.9712 11.7081 38.854 11.5293C36.7489 8.32089 34.7064 6.17591 32.7704 5.15938C32.6767 5.11016 32.5936 5.04297 32.5258 4.96162C32.458 4.88028 32.407 4.78639 32.3755 4.6853C32.344 4.58422 32.3328 4.47793 32.3424 4.3725C32.352 4.26707 32.3823 4.16457 32.4316 4.07085Z" fill="#096BD8"/>
</svg>
