<svg width="80" height="70" viewBox="0 0 80 70" fill="none" xmlns="http://www.w3.org/2000/svg">
<path d="M79.8515 67.1001H0.147949V70H79.8515V67.1001Z" fill="#F54712"/>
<path d="M37.221 63.8028H21.4634V27.7139H37.221V63.8028ZM24.333 60.9034H34.3518V30.6134H24.333V60.9034Z" fill="#0960B8"/>
<path d="M58.5372 63.8028H42.7808V40.8058H58.5372V63.8028ZM45.6504 60.9033H55.668V43.7057H45.6504V60.9033Z" fill="#0960B8"/>
<path d="M79.8514 63.8029H64.0962V20.2196H79.8514V63.8029ZM66.9658 60.9034H76.9822V23.1191H66.9658V60.9034Z" fill="#0960B8"/>
<path d="M15.9055 63.8028H0.147949V50.8556H15.9055V63.8028ZM3.01715 60.9033H13.0359V53.7547H3.01715V60.9033Z" fill="#0960B8"/>
<path d="M48.5192 24.4652L33.5083 9.2959L31.4795 11.3461L46.4904 26.5155L48.5192 24.4652Z" fill="#096BD8"/>
<path d="M70.7998 11.347L68.771 9.29675L53.7607 24.4655L55.7895 26.5157L70.7998 11.347Z" fill="#096BD8"/>
<path d="M26.2393 11.346L24.2104 9.29578L9.18882 24.476L11.2176 26.5262L26.2393 11.346Z" fill="#096BD8"/>
<path d="M6.5772 35.81C2.95 35.81 0 32.8285 0 29.1638C0 25.4991 2.95 22.5176 6.5772 22.5176C10.2036 22.5176 13.154 25.4987 13.154 29.1638C13.154 32.8289 10.2036 35.81 6.5772 35.81ZM6.5772 25.4171C4.5328 25.4171 2.8688 27.0978 2.8688 29.1638C2.8688 31.2298 4.5328 32.9105 6.5772 32.9105C8.6212 32.9105 10.2848 31.2298 10.2848 29.1638C10.2848 27.0978 8.6216 25.4171 6.5772 25.4171Z" fill="#F54712"/>
<path d="M28.859 13.2924C25.2326 13.2924 22.2822 10.3113 22.2822 6.64622C22.2822 2.98114 25.2322 0 28.859 0C32.4858 0 35.4358 2.98154 35.4358 6.64622C35.4358 10.3109 32.4858 13.2924 28.859 13.2924ZM28.859 2.89989C26.8146 2.89989 25.1514 4.58065 25.1514 6.64663C25.1514 8.71261 26.8146 10.3934 28.859 10.3934C30.903 10.3934 32.5666 8.71261 32.5666 6.64663C32.5666 4.58065 30.9034 2.89989 28.859 2.89989Z" fill="#9747FF"/>
<path d="M51.1418 35.81C47.5158 35.81 44.5654 32.8285 44.5654 29.1638C44.5654 25.4991 47.5158 22.5176 51.1418 22.5176C54.7682 22.5176 57.7186 25.4987 57.7186 29.1638C57.7186 32.8289 54.7686 35.81 51.1418 35.81ZM51.1418 25.4171C49.0986 25.4171 47.4342 27.0978 47.4342 29.1638C47.4342 31.2298 49.0982 32.9105 51.1418 32.9105C53.1866 32.9105 54.8494 31.2298 54.8494 29.1638C54.8494 27.0978 53.187 25.4171 51.1418 25.4171Z" fill="#FFA500"/>
<path d="M73.4254 13.2924C69.799 13.2924 66.8486 10.3113 66.8486 6.64622C66.8486 2.98114 69.799 0 73.4254 0C77.0506 0 79.9998 2.98114 79.9998 6.64622C79.9998 10.3113 77.0506 13.2924 73.4254 13.2924ZM73.4254 2.89989C71.3818 2.89989 69.7178 4.58065 69.7178 6.64663C69.7178 8.71261 71.3814 10.3934 73.4254 10.3934C75.4686 10.3934 77.1302 8.71261 77.1302 6.64663C77.1302 4.58065 75.469 2.89989 73.4254 2.89989Z" fill="#005C55"/>
</svg>
