<svg width="58" height="70" viewBox="0 0 58 70" fill="none" xmlns="http://www.w3.org/2000/svg">
<path d="M38.9253 69.1894C39.9415 68.1086 39.9415 66.3565 38.9253 65.2759L33.1798 59.1648L38.9253 53.0536C39.9415 51.973 39.9415 50.2207 38.9253 49.1401C37.9094 48.0593 36.262 48.0593 35.2458 49.1401L27.6605 57.208C26.6444 58.2886 26.6444 60.0409 27.6605 61.1215L35.2458 69.1894C36.262 70.27 37.9094 70.27 38.9253 69.1894Z" fill="#096BD8"/>
<path d="M45.9732 49.1401C44.9573 50.2209 44.9573 51.973 45.9732 53.0536L51.719 59.1648L45.9732 65.2759C44.9573 66.3565 44.9573 68.1088 45.9732 69.1894C46.9893 70.2702 48.6368 70.2702 49.6527 69.1894L57.2382 61.1215C58.2541 60.0409 58.2541 58.2886 57.2382 57.208L49.6527 49.1401C48.6368 48.0595 46.9893 48.0595 45.9732 49.1401Z" fill="#096BD8"/>
<path fill-rule="evenodd" clip-rule="evenodd" d="M0 8.06792C0 3.61214 3.6021 0 8.0455 0H16.091H32.182H40.2275C44.671 0 48.273 3.61214 48.273 8.06792V40.3396C48.273 41.8249 47.0723 43.0289 45.5912 43.0289C44.11 43.0289 42.9093 41.8249 42.9093 40.3396V8.06792C42.9093 6.58267 41.7087 5.37861 40.2275 5.37861H37.5457C37.5457 8.34914 35.1443 10.7572 32.182 10.7572H16.091C13.1286 10.7572 10.7273 8.34914 10.7273 5.37861H8.0455C6.56435 5.37861 5.36367 6.58267 5.36367 8.06792V61.854C5.36367 63.3393 6.56438 64.5433 8.0455 64.5433H21.4547C22.9358 64.5433 24.1365 65.7473 24.1365 67.2326C24.1365 68.7179 22.9358 69.9219 21.4547 69.9219H8.0455C3.6021 69.9219 0 66.3099 0 61.854V8.06792Z" fill="#F54712"/>
</svg>
