<svg width="84" height="70" viewBox="0 0 84 70" fill="none" xmlns="http://www.w3.org/2000/svg">
<path d="M53.4946 62.991H30.5052C29.6209 62.991 28.9136 63.7098 28.9136 64.6084V68.3825C28.9136 69.2811 29.6209 70 30.5052 70H53.4946C54.3788 70 55.0862 69.2811 55.0862 68.3825V64.6084C55.0862 63.7098 54.3788 62.991 53.4946 62.991Z" fill="#6637EE"/>
<path d="M45.6251 18.1514C45.183 17.3427 44.4756 16.7137 43.6798 16.3542V35.6739C45.6251 36.3928 46.9514 38.2798 46.9514 40.4364C46.9514 43.222 44.7409 45.4685 41.9998 45.4685C39.2587 45.4685 37.0482 43.222 37.0482 40.4364C37.0482 38.2798 38.463 36.3928 40.3198 35.6739V16.4441C39.524 16.8035 38.9051 17.4326 38.3745 18.1514L26.5261 39.1784C25.7303 40.5263 25.4651 42.1437 25.8187 43.6713L28.6482 57.9589C28.8251 58.6777 29.444 59.3068 30.2398 59.3068H53.8482C54.644 59.3068 55.263 58.7676 55.4398 57.9589L58.2693 43.6713C58.623 42.1437 58.3577 40.5263 57.5619 39.1784L45.6251 18.1514Z" fill="#FB6612"/>
<path d="M79.6674 8.80616C82.0547 8.80616 84 6.82927 84 4.40308C84 1.97689 82.0547 0 79.6674 0C77.8105 0 76.2189 1.25802 75.6 2.96534H46.5979C46.5095 2.96534 46.3326 2.96534 46.2442 2.96534V0.0898591H37.6674V2.96534C37.5789 2.96534 37.4021 2.96534 37.3137 2.96534H8.4C7.78105 1.25802 6.18947 0 4.33263 0C1.94526 0 0 1.97689 0 4.40308C0 6.82927 1.94526 8.80616 4.33263 8.80616C6.18947 8.80616 7.78105 7.54814 8.4 5.84082H26.7032C13.7937 11.4121 4.42105 23.7227 2.82947 38.4596H0V47.1759H8.57684V38.4596H6.18947C8.13474 21.7458 21.2211 8.44673 37.6674 6.46983V8.89602H46.2442V6.46983C62.6905 8.44673 75.7768 21.7458 77.7221 38.4596H75.3347V47.1759H83.9116V38.4596H81.0821C79.4905 23.7227 70.1179 11.4121 57.2084 5.84082H75.6C76.2189 7.638 77.8105 8.80616 79.6674 8.80616Z" fill="#096BD8"/>
</svg>
