<svg width="70" height="70" viewBox="0 0 70 70" fill="none" xmlns="http://www.w3.org/2000/svg">
<path d="M62.7099 29.0415C59.1416 29.272 56.3416 32.3964 56.3416 36.1439V47.8049C56.3416 48.7439 55.5733 49.5122 54.6342 49.5122H47.805C46.8659 49.5122 46.0977 50.2805 46.0977 51.2195V70H52.9269V58.0488C52.9269 57.1098 53.6952 56.3415 54.6342 56.3415H70.0001V35.8537C70.0001 33.9415 69.2318 32.1744 67.8403 30.8683C66.4489 29.5622 64.622 28.922 62.7099 29.0415Z" fill="#F54712"/>
<path d="M63.1706 25.6097C66.9352 25.6097 69.9998 22.5451 69.9998 18.7804C69.9998 15.0158 66.9352 11.9512 63.1706 11.9512C59.4059 11.9512 56.3413 15.0158 56.3413 18.7804C56.3413 22.5451 59.4059 25.6097 63.1706 25.6097Z" fill="#F54712"/>
<path d="M43.5364 0H26.4632C25.5242 0 24.7559 0.768293 24.7559 1.70732V11.9512C24.7559 12.8902 25.5242 13.6585 26.4632 13.6585H30.7315C31.3205 13.6585 31.8668 13.9659 32.1827 14.461L34.9998 18.9768L37.8168 14.461C38.1327 13.9659 38.679 13.6585 39.2681 13.6585H43.5364C44.4754 13.6585 45.2437 12.8902 45.2437 11.9512V1.70732C45.2437 0.768293 44.4754 0 43.5364 0Z" fill="#9747FF"/>
<path d="M0 18.7804C0 15.0158 3.06463 11.9512 6.82927 11.9512C10.5939 11.9512 13.6585 15.0158 13.6585 18.7804C13.6585 22.5451 10.5939 25.6097 6.82927 25.6097C3.06463 25.6097 0 22.5451 0 18.7804Z" fill="#096BD8"/>
<path d="M22.1951 49.5122H15.3659C14.4268 49.5122 13.6585 48.7439 13.6585 47.8049V36.1439C13.6585 32.3964 10.8585 29.272 7.29025 29.0415C5.38659 28.922 3.55122 29.5622 2.15976 30.8683C0.768293 32.1744 0 33.9415 0 35.8537V56.3415H15.3659C16.3049 56.3415 17.0732 57.1098 17.0732 58.0488V70H23.9024V51.2195C23.9024 50.2805 23.1342 49.5122 22.1951 49.5122Z" fill="#096BD8"/>
</svg>
