<svg width="90" height="70" viewBox="0 0 90 70" fill="none" xmlns="http://www.w3.org/2000/svg">
<path d="M32.8535 17.4764V4.81781H83.6767V36.1808H32.8535V32.6856H28.0356V38.5425C28.0356 39.865 29.0748 40.9042 30.3973 40.9042H86.0383C87.3609 40.9042 88.4 39.865 88.4 38.5425V2.36167C88.4 1.03914 87.3609 0 86.0383 0H30.4918C29.1692 0 28.1301 1.03914 28.1301 2.36167V15.1147L30.2084 17.4764H32.8535Z" fill="#9747FF"/>
<path d="M33.5147 27.8678C35.0261 27.8678 36.3487 26.6397 36.3487 25.0338C36.3487 23.5223 35.1206 22.1998 33.5147 22.1998H28.0356L23.5956 17.2875C22.2731 15.8705 20.4782 15.0203 18.4944 15.0203H13.4877C11.2205 15.0203 9.1422 16.1539 7.81966 18.0432L0.545707 28.718C-0.115562 29.6626 -0.210029 30.9852 0.45124 31.9298C1.01804 32.78 1.96271 33.1579 2.81291 33.1579C3.66312 33.1579 4.60779 32.78 5.08012 31.9298L8.8588 26.4508V54.6019C8.8588 56.0189 9.80347 57.3415 11.2205 57.5304C13.0153 57.8138 14.4323 56.4912 14.4323 54.7908V37.4089H17.1719V54.6964C17.1719 56.1134 18.1166 57.4359 19.5336 57.6249C21.3284 57.9083 22.7454 56.5857 22.7454 54.8853V24.8448L24.7292 27.0176C25.296 27.5844 26.0518 27.9622 26.8075 27.9622H33.5147V27.8678Z" fill="#096BD8"/>
<path d="M15.7548 13.5088C19.1982 13.5088 21.9897 10.7174 21.9897 7.274C21.9897 3.83061 19.1982 1.03918 15.7548 1.03918C12.3114 1.03918 9.52002 3.83061 9.52002 7.274C9.52002 10.7174 12.3114 13.5088 15.7548 13.5088Z" fill="#096BD8"/>
<path d="M39.088 58.1917H32.7587C29.2635 58.1917 26.5239 61.0257 26.5239 64.4265V68.583C26.5239 69.3387 27.1852 70 27.9409 70H44.0003C44.756 70 45.4173 69.3387 45.4173 68.583V64.4265C45.3228 60.9312 42.4888 58.1917 39.088 58.1917Z" fill="#F54712"/>
<path d="M35.8766 56.3023C38.7982 56.3023 41.1667 53.9339 41.1667 51.0122C41.1667 48.0905 38.7982 45.722 35.8766 45.722C32.9549 45.722 30.5864 48.0905 30.5864 51.0122C30.5864 53.9339 32.9549 56.3023 35.8766 56.3023Z" fill="#F54712"/>
<path d="M61.2877 58.1917H54.9585C51.4632 58.1917 48.7236 61.0257 48.7236 64.4265V68.583C48.7236 69.3387 49.3849 70 50.1406 70H66.2C66.9558 70 67.617 69.3387 67.617 68.583V64.4265C67.5226 60.9312 64.6885 58.1917 61.2877 58.1917Z" fill="#00FFBC"/>
<path d="M58.0763 56.3023C60.9979 56.3023 63.3664 53.9339 63.3664 51.0122C63.3664 48.0905 60.9979 45.722 58.0763 45.722C55.1546 45.722 52.7861 48.0905 52.7861 51.0122C52.7861 53.9339 55.1546 56.3023 58.0763 56.3023Z" fill="#00FFBC"/>
<path d="M83.4874 58.1917H77.1582C73.6629 58.1917 70.9233 61.0257 70.9233 64.4265V68.583C70.9233 69.3387 71.5846 70 72.3403 70H88.3997C89.1555 70 89.8167 69.3387 89.8167 68.583V64.4265C89.7223 60.9312 86.8883 58.1917 83.4874 58.1917Z" fill="#FF6B6B"/>
<path d="M80.276 56.3023C83.1977 56.3023 85.5661 53.9339 85.5661 51.0122C85.5661 48.0905 83.1977 45.722 80.276 45.722C77.3543 45.722 74.9858 48.0905 74.9858 51.0122C74.9858 53.9339 77.3543 56.3023 80.276 56.3023Z" fill="#FF6B6B"/>
<path d="M45.3932 18.8986H41.5616C41.4143 18.8986 41.2964 19.0115 41.2964 19.1527V19.7458C41.2964 19.887 41.4143 20 41.5616 20H45.3932C45.5406 20 45.6585 19.887 45.6585 19.7458V19.1527C45.6585 19.0115 45.5406 18.8986 45.3932 18.8986Z" fill="#6637EE"/>
<path d="M44.0816 11.8524C44.0079 11.7253 43.89 11.6264 43.7573 11.5699V14.6059C44.0816 14.7189 44.3026 15.0154 44.3026 15.3543C44.3026 15.792 43.9342 16.145 43.4773 16.145C43.0205 16.145 42.6521 15.792 42.6521 15.3543C42.6521 15.0154 42.8879 14.7189 43.1973 14.6059V11.5841C43.0647 11.6405 42.9616 11.7394 42.8731 11.8524L40.8984 15.1566C40.7658 15.3684 40.7216 15.6226 40.7805 15.8626L41.2521 18.1078C41.2816 18.2208 41.3847 18.3196 41.5173 18.3196H45.4521C45.5847 18.3196 45.6879 18.2349 45.7173 18.1078L46.1889 15.8626C46.2479 15.6226 46.2037 15.3684 46.071 15.1566L44.0816 11.8524Z" fill="#FB6612"/>
<path d="M49.7554 10.3838C50.1533 10.3838 50.4775 10.0732 50.4775 9.69191C50.4775 9.31065 50.1533 9 49.7554 9C49.446 9 49.1807 9.19769 49.0775 9.46598H44.2439C44.2291 9.46598 44.1996 9.46598 44.1849 9.46598V9.01412H42.7554V9.46598C42.7407 9.46598 42.7112 9.46598 42.6965 9.46598H37.8775C37.7744 9.19769 37.5091 9 37.1996 9C36.8017 9 36.4775 9.31065 36.4775 9.69191C36.4775 10.0732 36.8017 10.3838 37.1996 10.3838C37.5091 10.3838 37.7744 10.1861 37.8775 9.91784H40.9281C38.7765 10.7933 37.2144 12.7279 36.9491 15.0436H36.4775V16.4134H37.907V15.0436H37.5091C37.8333 12.4172 40.0144 10.3273 42.7554 10.0167V10.3979H44.1849V10.0167C46.926 10.3273 49.107 12.4172 49.4312 15.0436H49.0333V16.4134H50.4628V15.0436H49.9912C49.726 12.7279 48.1639 10.7933 46.0123 9.91784H49.0775C49.1807 10.2003 49.446 10.3838 49.7554 10.3838Z" fill="#096BD8"/>
<path d="M60.1501 32.861C60.3243 32.6757 60.3243 32.3754 60.1501 32.1901L59.1652 31.1425L60.1501 30.0949C60.3243 29.9096 60.3243 29.6092 60.1501 29.424C59.976 29.2387 59.6936 29.2387 59.5194 29.424L58.219 30.8071C58.0448 30.9923 58.0448 31.2927 58.219 31.478L59.5194 32.861C59.6936 33.0463 59.976 33.0463 60.1501 32.861Z" fill="#096BD8"/>
<path d="M61.3583 29.424C61.1842 29.6093 61.1842 29.9096 61.3583 30.0949L62.3433 31.1425L61.3583 32.1901C61.1842 32.3754 61.1842 32.6758 61.3583 32.861C61.5325 33.0463 61.815 33.0463 61.9891 32.861L63.2895 31.478C63.4636 31.2927 63.4636 30.9923 63.2895 30.8071L61.9891 29.424C61.815 29.2388 61.5325 29.2388 61.3583 29.424Z" fill="#096BD8"/>
<path fill-rule="evenodd" clip-rule="evenodd" d="M53.4775 22.3831C53.4775 21.6192 54.095 21 54.8568 21H56.236H58.9945H60.3737C61.1354 21 61.7529 21.6192 61.7529 22.3831V27.9154C61.7529 28.17 61.5471 28.3764 61.2932 28.3764C61.0393 28.3764 60.8334 28.17 60.8334 27.9154V22.3831C60.8334 22.1285 60.6276 21.922 60.3737 21.922H59.9139C59.9139 22.4313 59.5023 22.8441 58.9945 22.8441H56.236C55.7282 22.8441 55.3165 22.4313 55.3165 21.922H54.8568C54.6029 21.922 54.397 22.1285 54.397 22.3831V31.6035C54.397 31.8582 54.6029 32.0646 54.8568 32.0646H57.1555C57.4094 32.0646 57.6152 32.271 57.6152 32.5256C57.6152 32.7802 57.4094 32.9866 57.1555 32.9866H54.8568C54.095 32.9866 53.4775 32.3674 53.4775 31.6035V22.3831Z" fill="#F54712"/>
</svg>
