<svg width="90" height="70" viewBox="0 0 90 70" fill="none" xmlns="http://www.w3.org/2000/svg">
<path d="M27 66.9565C27 68.6374 25.6569 70 24 70H22.5C14.2158 70 7.5 63.1869 7.5 54.7826V44.5587C7.5 43.696 7.13904 42.8736 6.5069 42.2966L0.993105 37.2622C0.36096 36.685 0 35.8628 0 35C0 34.1372 0.36096 33.315 0.993105 32.7378L6.5069 27.7034C7.13904 27.1264 7.5 26.304 7.5 25.4412V15.2174C7.5 6.81313 14.2158 0 22.5 0H24C25.6569 0 27 1.36261 27 3.04348C27 4.72439 25.6569 6.08696 24 6.08696H22.5C17.5295 6.08696 13.5 10.1748 13.5 15.2174V25.4412C13.5 28.0297 12.4172 30.4964 10.5207 32.2278L7.48453 35L10.5207 37.7722C12.4172 39.5036 13.5 41.9703 13.5 44.5587V54.7826C13.5 59.8252 17.5295 63.913 22.5 63.913H24C25.6569 63.913 27 65.2756 27 66.9565Z" fill="#096BD8"/>
<path d="M63 66.9565C63 68.6374 64.3431 70 66 70H67.5C75.7842 70 82.5 63.1869 82.5 54.7826V44.5587C82.5 43.696 82.8609 42.8736 83.4932 42.2966L89.0068 37.2622C89.6391 36.685 90 35.8628 90 35C90 34.1372 89.6391 33.315 89.0068 32.7378L83.4932 27.7034C82.8609 27.1264 82.5 26.304 82.5 25.4412V15.2174C82.5 6.81313 75.7842 0 67.5 0H66C64.3431 0 63 1.36261 63 3.04348C63 4.72439 64.3431 6.08696 66 6.08696H67.5C72.4705 6.08696 76.5 10.1748 76.5 15.2174V25.4412C76.5 28.0297 77.5828 30.4964 79.4793 32.2278L82.5154 35L79.4793 37.7722C77.5828 39.5036 76.5 41.9703 76.5 44.5587V54.7826C76.5 59.8252 72.4705 63.913 67.5 63.913H66C64.3431 63.913 63 65.2756 63 66.9565Z" fill="#096BD8"/>
<path d="M30 38.0435C31.6569 38.0435 33 36.6809 33 35C33 33.3191 31.6569 31.9565 30 31.9565C28.3431 31.9565 27 33.3191 27 35C27 36.6809 28.3431 38.0435 30 38.0435Z" fill="#9747FF"/>
<path d="M45 38.0435C46.6569 38.0435 48 36.6809 48 35C48 33.3191 46.6569 31.9565 45 31.9565C43.3431 31.9565 42 33.3191 42 35C42 36.6809 43.3431 38.0435 45 38.0435Z" fill="#F54712"/>
<path d="M63 35C63 36.6809 61.6569 38.0435 60 38.0435C58.3431 38.0435 57 36.6809 57 35C57 33.3191 58.3431 31.9565 60 31.9565C61.6569 31.9565 63 33.3191 63 35Z" fill="#FF6B6B"/>
</svg>
